<?xml version="1.0" encoding="UTF-8" standalone="no"?>
<!-- Created with Inkscape (http://www.inkscape.org/) -->

<svg
   width="108.30278mm"
   height="38.805557mm"
   viewBox="0 0 108.30278 38.805557"
   version="1.1"
   id="svg5"
   inkscape:version="1.1.2 (0a00cf5339, 2022-02-04)"
   sodipodi:docname="drawing.svg"
   xmlns:inkscape="http://www.inkscape.org/namespaces/inkscape"
   xmlns:sodipodi="http://sodipodi.sourceforge.net/DTD/sodipodi-0.dtd"
   xmlns="http://www.w3.org/2000/svg"
   xmlns:svg="http://www.w3.org/2000/svg">
  <sodipodi:namedview
     id="namedview7"
     pagecolor="#ffffff"
     bordercolor="#666666"
     borderopacity="1.0"
     inkscape:pageshadow="2"
     inkscape:pageopacity="0.0"
     inkscape:pagecheckerboard="true"
     inkscape:document-units="mm"
     showgrid="false"
     inkscape:zoom="1.3932941"
     inkscape:cx="105.86423"
     inkscape:cy="44.14"
     inkscape:window-width="1850"
     inkscape:window-height="1016"
     inkscape:window-x="0"
     inkscape:window-y="0"
     inkscape:window-maximized="1"
     inkscape:current-layer="layer1" />
  <defs
     id="defs2" />
  <g
     inkscape:groupmode="layer"
     id="layer4"
     inkscape:label="Layer 3"
     transform="translate(1.5434028,1.2347223)">
    <rect
       style="opacity:1;fill:#f4e2d2;fill-opacity:1;stroke-width:0.264583"
       id="rect87713"
       width="108.30278"
       height="38.805557"
       x="-1.5434028"
       y="-1.2347223" />
  </g>
  <g
     inkscape:groupmode="layer"
     id="layer3"
     inkscape:label="Layer 2"
     style="opacity:1"
     transform="translate(1.5434028,1.2347223)">
    <rect
       style="fill:#ffffff;fill-opacity:1;stroke-width:0.264583"
       id="rect80621"
       width="102.74653"
       height="33.690281"
       x="48.82621"
       y="125.67062"
       transform="translate(-47.591488,-124.34771)" />
  </g>
  <g
     inkscape:label="Layer 1"
     inkscape:groupmode="layer"
     id="layer1"
     transform="translate(-46.048086,-123.11299)">
    <path
       style="fill:#24425f;stroke:none;stroke-width:0.0881944"
       d="m 47.591489,124.34771 v 36.33611 H 152.80747 V 124.34771 H 47.591489 m 103.981251,1.32291 V 159.3609 H 48.826212 V 125.67062 H 151.57274 m -99.21875,4.7625 v 11.1125 h 2.116666 v -7.67291 h 0.08819 c 0.744096,1.7309 2.386894,3.34424 3.516753,4.85069 0.302507,0.40331 0.844374,1.48087 1.423106,1.48087 0.567531,0 1.098285,-0.99809 1.398146,-1.39267 1.176867,-1.54896 2.624844,-3.13417 3.539773,-4.8507 h 0.08819 v 7.58472 h 2.38125 v -11.1125 l -2.021416,0.12202 -1.671726,1.99465 -3.450608,4.58611 -3.775163,-4.7625 -1.617381,-1.85741 -2.015789,-0.0829 m 34.484028,0 c -0.578115,0 -2.026091,-0.26362 -2.485143,0.11111 -0.403754,0.32958 -0.16069,1.78657 -0.16069,2.27014 v 6.70278 h -7.320139 v -6.70278 c 0,-0.48357 0.243064,-1.94056 -0.160691,-2.27014 -0.337873,-0.27585 -2.281061,-0.27557 -2.440957,0.17853 -0.246945,0.70175 -0.04419,1.79105 -0.04419,2.53258 v 4.67431 c 0,0.85434 -0.09701,1.85808 0.305506,2.64416 0.47528,0.92816 1.505391,0.98345 2.428522,1.04801 2.265363,0.1584 4.608072,0.0366 6.879167,0.0113 0.859455,-0.01 2.011627,-0.0521 2.576601,-0.80177 0.638175,-0.84667 0.42201,-2.17506 0.42201,-3.16627 v -7.23195 m 7.584722,0 v 11.1125 h 2.293065 v -7.58472 c 2.3756,2.29138 5.075498,4.28228 7.584718,6.42567 0.64638,0.5521 2.12849,1.9312 3.10251,1.13612 0.42165,-0.34413 0.16069,-1.93728 0.16069,-2.44651 v -6.26181 c 0,-0.52458 0.23274,-1.79935 -0.11113,-2.22058 -0.32314,-0.39594 -1.70665,-0.16067 -2.18193,-0.16067 v 7.67292 c -1.82545,-1.82272 -3.92836,-3.39857 -5.909028,-5.04913 -0.92904,-0.77417 -2.04232,-2.10569 -3.175,-2.54158 -0.51559,-0.1984 -1.21903,-0.0822 -1.763895,-0.0822 m 32.720143,7.23195 -2.64583,-0.52917 -0.0882,2.38125 h -6.87917 v -7.05556 h 5.02708 c 0.44776,0 1.43607,-0.18291 1.77959,0.1607 0.36557,0.36556 0.16069,1.47364 0.16069,1.95597 l 2.64583,-0.44097 c -0.18177,-1.02694 0.16299,-2.42438 -0.73827,-3.18521 -0.71658,-0.60495 -1.82492,-0.51896 -2.70131,-0.51896 -1.91091,0 -3.82182,-0.004 -5.73264,6e-5 -0.78731,0.002 -1.92017,-0.0271 -2.51822,0.56868 -0.64725,0.64473 -0.56859,1.68278 -0.56859,2.51807 0,2.05061 -0.20708,4.22442 0.0209,6.2618 0.25805,2.30716 3.24635,1.85209 4.91798,1.85209 1.59835,0 3.26214,0.1307 4.8507,-0.0496 0.69673,-0.079 1.40335,-0.0765 1.8945,-0.66525 0.65599,-0.78616 0.54055,-2.28379 0.57494,-3.25393 m 7.14375,-7.23195 v 11.1125 h 2.64584 v -4.7625 h 8.11389 v 4.7625 h 2.55763 v -11.1125 c -0.57855,0 -2.02582,-0.26362 -2.48531,0.11111 -0.26812,0.21932 -0.16052,0.81951 -0.16052,1.12361 v 3.08681 h -8.11389 v -4.32153 h -2.55764 m -81.844449,16.22778 v 7.14375 h 1.675695 v -5.11528 l -0.111108,-1.86778 -1.564587,-0.16069 m 4.850695,0 v 7.14375 h 1.5875 v -4.7625 c 1.410405,0.96353 2.72318,2.10829 4.056944,3.175 1.053042,0.84226 1.785849,1.5875 3.175,1.5875 v -7.14375 l -1.42681,0.11113 -0.16069,1.21179 v 3.35139 c -1.243277,-1.11602 -2.632516,-2.11729 -3.96875,-3.11988 -1.132681,-0.84984 -1.800578,-1.55443 -3.263194,-1.55443 m 12.082639,0 v 7.14375 c 2.34703,0 5.568773,0.54954 7.672828,-0.69965 2.026797,-1.20314 1.95095,-4.69123 -0.08811,-5.83882 -2.081301,-1.17131 -5.28126,-0.60528 -7.584722,-0.60528 m 11.729861,0 v 4.67431 c 0,0.63579 -0.110419,1.4672 0.334786,1.99072 0.426949,0.50218 1.182688,0.47819 1.781881,0.47872 1.469848,0.001 2.939873,0.003 4.409722,-9e-5 0.628386,-0.002 1.380861,-0.0356 1.760185,-0.62609 0.350573,-0.54566 0.268287,-1.40035 0.268287,-2.01965 0,-1.46685 0.167923,-3.05118 -0.08819,-4.49792 h -1.675695 v 5.73264 h -5.027083 v -5.73264 h -1.763889 m 18.256256,4.14514 v 1.5875 h -5.115283 v -0.79375 l -1.5875,0.26458 c 8.8e-5,0.57979 -0.06262,1.21991 0.452349,1.61546 0.499974,0.38409 1.24751,0.32473 1.840704,0.32482 h 3.79237 c 0.56303,0 1.265768,0.0905 1.752508,-0.25567 0.87145,-0.61984 0.95233,-3.27757 0,-3.86248 -0.699908,-0.42995 -1.933658,-0.20338 -2.722648,-0.20338 h -3.2632 v -1.4993 h 4.9389 v 0.70555 c 0.38126,-0.075 1.042898,-0.0957 1.337988,-0.36856 0.57424,-0.53111 -0.31679,-1.43739 -0.808908,-1.58168 -0.65079,-0.19094 -1.44437,-0.0782 -2.11658,-0.0782 -1.27653,0 -2.920394,-0.27243 -4.144445,0.12259 -1.088495,0.35128 -1.209234,3.234 -0.250736,3.79316 0.551832,0.32191 1.314361,0.22939 1.925721,0.22939 h 3.96876 m 3.351388,-4.14514 v 1.32292 h 3.43958 v 5.82083 h 1.76389 v -5.90903 h 3.43959 v -1.23472 h -8.64306 m 10.40695,0 v 7.14375 h 1.76388 v -2.64583 l 1.6757,0.12135 2.91042,2.41697 2.55764,0.10751 v -0.0882 l -3.2632,-2.46945 c 0.67134,-0.16995 1.53926,0.011 2.09515,-0.48736 0.71455,-0.64073 0.66357,-3.48289 -0.24739,-3.9288 -0.6768,-0.33134 -1.64456,-0.16995 -2.37693,-0.16995 h -5.11527 m 11.0243,0 v 7.14375 l 1.65277,-0.16069 0.11112,-1.515 v -3.88056 l -0.11112,-1.42681 -1.65277,-0.16069 m 4.93889,0 v 7.14375 h 5.73264 c 0.43127,0 1.61837,0.20611 1.91735,-0.16069 0.2928,-0.3586 0.15698,-1.17096 -0.33602,-1.23737 -1.78241,-0.24015 -3.74994,-0.013 -5.55008,-0.013 v -1.67569 h 3.43958 l -0.11112,-1.16223 -0.85902,-0.16069 h -2.46944 v -1.49931 h 5.90903 l -0.16052,-1.12359 -2.04434,-0.11113 h -5.46806 m 16.84514,4.14514 v 1.5875 h -5.11528 v -0.79375 l -1.67569,0.26458 c 0.0256,2.738 3.43429,1.94028 5.37986,1.94028 0.79199,0 1.96144,0.19368 2.62731,-0.33523 0.7082,-0.56144 0.73643,-3.16776 -0.007,-3.70866 -0.70115,-0.51012 -1.97997,-0.27764 -2.79665,-0.27764 h -3.26319 v -1.4993 h 4.93888 v 0.70555 l 1.41112,-0.26458 c 0,-0.43639 0.0485,-0.93354 -0.24695,-1.29434 -0.3616,-0.44097 -0.99307,-0.46646 -1.51694,-0.46928 -1.11743,-0.006 -2.23397,-2.7e-4 -3.35139,-2.7e-4 -0.7329,0 -1.8318,-0.17568 -2.43858,0.33523 -0.67204,0.56559 -0.66587,3.02463 0.0741,3.5313 0.72496,0.49627 1.97468,0.27861 2.80547,0.27861 h 3.175 m -74.788896,1.5875 v -4.49792 c 1.321505,0 3.391252,-0.32949 4.585405,0.31565 1.288874,0.6963 1.338616,3.03927 0.08819,3.78848 -1.258976,0.75433 -3.263989,0.39379 -4.6736,0.39379 m 43.744441,-2.55764 v -1.94028 c 1.29832,0 2.97454,-0.28328 4.22884,0.0568 0.60854,0.16501 0.78767,1.3171 0.31309,1.72279 -0.31,0.26494 -0.90188,0.16069 -1.27873,0.16069 z"
       id="path918" />
  </g>
</svg>
